<svg xmlns="http://www.w3.org/2000/svg" width="259" height="296.003" viewBox="0 0 259 296.003">
  <g id="Rectangle_3" data-name="Rectangle 3" transform="translate(-1310 -423.999)" fill="#fff">
    <path d="M 1439.499877929688 719.2345581054688 L 1312.68994140625 571.7747802734375 C 1312.550537109375 571.0408935546875 1311.845947265625 567.1776733398438 1311.27734375 561.2281494140625 C 1310.6953125 555.1381225585938 1310.140991210938 545.553955078125 1310.80517578125 534.4799194335938 C 1311.551147460938 522.041748046875 1313.65087890625 510.2966003417969 1317.046020507812 499.5707397460938 C 1321.28564453125 486.177001953125 1327.569213867188 474.3436584472656 1335.722045898438 464.3994140625 C 1357.428588867188 437.923095703125 1392.344482421875 424.4985046386719 1439.499877929688 424.4985046386719 C 1486.658447265625 424.4985046386719 1521.575927734375 437.9248962402344 1543.2822265625 464.4046936035156 C 1551.43701171875 474.3528137207031 1557.72119140625 486.1911315917969 1561.960205078125 499.5907592773438 C 1565.3544921875 510.3199462890625 1567.45263671875 522.0684814453125 1568.196655273438 534.5100708007812 C 1568.858764648438 545.5838623046875 1568.302978515625 555.1661987304688 1567.720092773438 561.2546997070312 C 1567.151611328125 567.1934814453125 1566.449340820312 571.0421752929688 1566.31005859375 571.7747192382812 L 1439.499877929688 719.2345581054688 Z" stroke="none"/>
    <path d="M 1439.499877929688 424.9984741210938 C 1392.504638671875 424.9984741210938 1357.72021484375 438.3597412109375 1336.112915039062 464.7111206054688 C 1328.002563476562 474.6022338867188 1321.75 486.374755859375 1317.529052734375 499.70166015625 C 1314.145263671875 510.385009765625 1312.051635742188 522.0859985351562 1311.306030273438 534.479736328125 C 1310.641723632812 545.5219116210938 1311.193115234375 555.0802001953125 1311.772583007812 561.154052734375 C 1312.311767578125 566.8058471679688 1312.974487304688 570.5709838867188 1313.156616210938 571.550537109375 L 1439.499877929688 718.4677124023438 L 1565.843505859375 571.5504150390625 C 1566.025024414062 570.5752563476562 1566.683349609375 566.837890625 1567.222412109375 561.2070922851562 C 1567.803588867188 555.1361083984375 1568.357788085938 545.5816040039062 1567.697509765625 534.5399169921875 C 1566.9560546875 522.139404296875 1564.865356445312 510.4315185546875 1561.483520507812 499.7415161132812 C 1557.263793945312 486.40283203125 1551.009765625 474.620361328125 1542.8955078125 464.7216186523438 C 1521.288696289062 438.3633422851562 1486.50146484375 424.9984741210938 1439.499877929688 424.9984741210938 M 1439.499877929688 423.9984741210938 C 1596.389526367188 423.9984741210938 1566.775756835938 572 1566.775756835938 572 L 1439.499877929688 720.0013427734375 L 1312.224243164062 572 C 1312.224243164062 572 1282.6103515625 423.9984741210938 1439.499877929688 423.9984741210938 Z" stroke="none" fill="#fff"/>
  </g>
</svg>
