<svg xmlns="http://www.w3.org/2000/svg" width="643.006" height="891.06" viewBox="0 0 643.006 891.06">
  <g id="Rectangle_3" data-name="Rectangle 3" transform="translate(-638.997 -106.944)" fill="rgba(0,0,0,0)">
    <path d="M 960.3142700195312 997.4071655273438 C 959.027099609375 996.94287109375 954.2531127929688 995.1848754882812 946.859619140625 992.0496215820312 C 938.8443603515625 988.650634765625 926.024169921875 982.891845703125 910.4659423828125 974.7593383789062 C 892.9801635742188 965.6192016601562 875.6705932617188 955.4049682617188 859.01806640625 944.4004516601562 C 838.2041625976562 930.64599609375 818.3641357421875 915.6109619140625 800.048828125 899.7131958007812 C 753.43603515625 859.2528686523438 716.2973022460938 813.0274047851562 689.6641845703125 762.3209838867188 C 681.9661865234375 747.6649780273438 675.0565185546875 732.4335327148438 669.1271362304688 717.0498657226562 C 662.8856201171875 700.8565673828125 657.5584106445312 684.0482177734375 653.2933959960938 667.0919799804688 C 648.8201904296875 649.30810546875 645.3916015625 630.8690795898438 643.1029663085938 612.287109375 C 640.7100219726562 592.8594360351562 639.496826171875 572.7356567382812 639.496826171875 552.4745483398438 C 639.496826171875 532.2134399414062 640.7100219726562 512.0895385742188 643.1029663085938 492.661865234375 C 645.3916015625 474.0798645019531 648.8201904296875 455.640869140625 653.2933959960938 437.8570861816406 C 657.5584106445312 420.9007568359375 662.8856201171875 404.092529296875 669.1271362304688 387.8992004394531 C 675.0565185546875 372.5154113769531 681.9661865234375 357.2839965820312 689.6641845703125 342.6279907226562 C 716.2973022460938 291.9215393066406 753.43603515625 245.6960906982422 800.048828125 205.2357635498047 C 818.3641357421875 189.3379821777344 838.2041625976562 174.302978515625 859.01806640625 160.5485382080078 C 875.6705932617188 149.5439758300781 892.9801635742188 139.3297576904297 910.4659423828125 130.1896514892578 C 926.024169921875 122.0570907592773 938.8443603515625 116.2983169555664 946.859619140625 112.8993148803711 C 954.2531127929688 109.7640991210938 959.027099609375 108.0060882568359 960.3142700195312 107.5417861938477 L 1281.386474609375 552.4745483398438 L 960.3142700195312 997.4071655273438 Z" stroke="none"/>
    <path d="M 960.1298828125 996.8082275390625 L 1280.769775390625 552.4744262695312 L 960.1298828125 108.1406784057617 C 958.4638671875 108.7486801147461 953.889404296875 110.4619216918945 947.07568359375 113.350830078125 C 939.0716552734375 116.7445602416992 926.2686157226562 122.4948272705078 910.7283325195312 130.61669921875 C 893.2583618164062 139.7472229003906 875.9639282226562 149.9509582519531 859.32568359375 160.9445648193359 C 838.5284423828125 174.6861572265625 818.704345703125 189.7068328857422 800.40380859375 205.5897521972656 C 753.83154296875 246.0096282958984 716.7256469726562 292.1876220703125 690.1170043945312 342.8410949707031 C 682.4266357421875 357.4810791015625 675.5235595703125 372.6958923339844 669.5999145507812 388.0628356933594 C 663.364501953125 404.2386779785156 658.0421752929688 421.0289611816406 653.78125 437.9671020507812 C 649.3120727539062 455.7326965332031 645.8865966796875 474.1531066894531 643.5999145507812 492.7164306640625 C 641.2091674804688 512.1260375976562 639.9968872070312 532.2315063476562 639.9968872070312 552.4744262695312 C 639.9968872070312 572.7129516601562 641.2086181640625 592.8140258789062 643.5984497070312 612.219482421875 C 645.8840942382812 630.7792358398438 649.3080444335938 649.1959228515625 653.7752685546875 666.9581298828125 C 658.0344848632812 683.8933715820312 663.3544921875 700.6806640625 669.5875244140625 716.8538818359375 C 675.5088500976562 732.2185668945312 682.4091186523438 747.4310913085938 690.0966186523438 762.0689697265625 C 716.6962280273438 812.7178955078125 753.7905883789062 858.89306640625 800.3495483398438 899.31201171875 C 818.6466064453125 915.1962890625 838.4676513671875 930.2186889648438 859.261962890625 943.9622802734375 C 875.9003295898438 954.958984375 893.195556640625 965.1661376953125 910.6671142578125 974.30029296875 C 926.2138061523438 982.4279174804688 939.0245971679688 988.183349609375 947.0340576171875 991.5804443359375 C 953.8653564453125 994.4778442382812 958.4591674804688 996.1984252929688 960.1298828125 996.8082275390625 M 960.4999389648438 998.0044555664062 C 960.4999389648438 998.0044555664062 638.9968872070312 885.4744262695312 638.9968872070312 552.4744262695312 C 638.9968872070312 219.4745635986328 960.4999389648438 106.9445571899414 960.4999389648438 106.9445571899414 L 1282.003051757812 552.4744262695312 L 960.4999389648438 998.0044555664062 Z" stroke="none" fill="#fff"/>
  </g>
</svg>
