<svg xmlns="http://www.w3.org/2000/svg" width="649.999" height="944.009" viewBox="0 0 649.999 944.009">
  <g id="Rectangle_3" data-name="Rectangle 3" transform="translate(-119 0.005)" fill="rgba(0,0,0,0)">
    <path d="M 443.9999694824219 943.1126098632812 L 125.0590591430664 471.8125915527344 C 124.8444900512695 470.4099426269531 122.6556777954102 455.7703247070312 121.1004333496094 432.7947692871094 C 120.1439666748047 418.6640625 119.6107864379883 404.1919555664062 119.5157318115234 389.7801818847656 C 119.3969039916992 371.7668762207031 119.9662017822266 353.7979431152344 121.2076110839844 336.3724060058594 C 124.3672561645508 292.0248718261719 131.846435546875 250.8874664306641 143.4376068115234 214.1028900146484 C 146.7873840332031 203.4722900390625 150.5304412841797 193.0691223144531 154.5626678466797 183.1824188232422 C 158.8066711425781 172.7766418457031 163.4880828857422 162.6565246582031 168.4766693115234 153.1031188964844 C 173.7079620361328 143.0848846435547 179.4219665527344 133.4126434326172 185.4599609375 124.3550033569336 C 191.771728515625 114.8868865966797 198.6128997802734 105.8272399902344 205.7934875488281 97.42771148681641 C 211.9402008056641 90.23770904541016 218.4920806884766 83.34841156005859 225.2673797607422 76.95124053955078 C 232.2672576904297 70.34194183349609 239.7021942138672 64.07205963134766 247.36572265625 58.31594467163086 C 255.2714996337891 52.37782669067383 263.6430358886719 46.81947326660156 272.2473754882812 41.79500198364258 C 281.1120910644531 36.61876678466797 290.4737243652344 31.86359024047852 300.0722045898438 27.66170883178711 C 309.9487915039062 23.33806037902832 320.3544311523438 19.47841453552246 330.9999694824219 16.19006156921387 C 341.9416198730469 12.81017875671387 353.4451293945312 9.938413619995117 365.19091796875 7.654649257659912 C 377.2505493164062 5.309943199157715 389.9056091308594 3.518884658813477 402.8045654296875 2.331237554550171 C 416.034912109375 1.113002181053162 429.8951416015625 0.4953551590442657 443.9999694824219 0.4953551590442657 C 458.1050109863281 0.4953551590442657 471.9653625488281 1.113002181053162 485.1960754394531 2.331237554550171 C 498.0952453613281 3.518884658813477 510.7504272460938 5.310060977935791 522.8101806640625 7.654884338378906 C 534.5562133789062 9.938766479492188 546.0597534179688 12.81053161621094 557.00146484375 16.19053077697754 C 567.6472778320312 19.47900199890137 578.0529174804688 23.3388843536377 587.9296264648438 27.66264915466309 C 597.5281982421875 31.86464881896973 606.8898315429688 36.61994171142578 615.7546997070312 41.79641342163086 C 624.359130859375 46.82088470458984 632.7306518554688 52.37947463989258 640.6365356445312 58.31782531738281 C 648.3001098632812 64.07405853271484 655.7350463867188 70.34406280517578 662.7349243164062 76.95359039306641 C 669.5101928710938 83.35100555419922 676.0620727539062 90.24041748046875 682.2088012695312 97.43064880371094 C 689.3898315429688 105.8310012817383 696.2315063476562 114.8915939331055 702.5436401367188 124.3607635498047 C 708.5819702148438 133.4193572998047 714.2962036132812 143.0926513671875 719.5277099609375 153.1119384765625 C 724.5165405273438 162.6664123535156 729.1979370117188 172.78759765625 733.4419555664062 183.1944122314453 C 737.4743041992188 193.0821838378906 741.21728515625 203.4862976074219 744.5670166015625 214.1179504394531 C 756.157470703125 250.9055938720703 763.6357421875 292.0461730957031 766.7938232421875 336.3970031738281 C 768.0347900390625 353.822998046875 768.6033935546875 371.7922973632812 768.4839477539062 389.8056945800781 C 768.3883056640625 404.2166442871094 767.8547973632812 418.6878356933594 766.8978271484375 432.8172302246094 C 765.3424072265625 455.7848205566406 763.1550903320312 470.4112243652344 762.9407348632812 471.8126220703125 L 443.9999694824219 943.1126098632812 Z" stroke="none"/>
    <path d="M 443.9998474121094 0.995361328125 C 429.9104309082031 0.995361328125 416.0659790039062 1.61236572265625 402.8509826660156 2.82904052734375 C 389.9687194824219 4.01507568359375 377.33056640625 5.80377197265625 365.2874145507812 8.14520263671875 C 353.5594482421875 10.42547607421875 342.0735473632812 13.29278564453125 331.1491088867188 16.66717529296875 C 320.521728515625 19.94989013671875 310.1339721679688 23.80291748046875 300.2747192382812 28.118896484375 C 290.6939697265625 32.31292724609375 281.349853515625 37.05908203125 272.5018310546875 42.2254638671875 C 263.9140014648438 47.23992919921875 255.558837890625 52.7874755859375 247.6683959960938 58.71392822265625 C 240.0198364257812 64.4586181640625 232.5994262695312 70.716064453125 225.6131591796875 77.31231689453125 C 218.850830078125 83.69720458984375 212.311279296875 90.5733642578125 206.1761474609375 97.7496337890625 C 199.0088500976562 106.1331787109375 192.1802978515625 115.1759033203125 185.8798217773438 124.62646484375 C 179.8519897460938 133.6685180664062 174.1473999023438 143.32421875 168.9244384765625 153.3256225585938 C 163.9432983398438 162.8641967773438 159.2686767578125 172.9690551757812 155.0305786132812 183.3591918945312 C 151.00341796875 193.2323608398438 147.2650146484375 203.621337890625 143.9192504882812 214.2379150390625 C 132.3392944335938 250.9823608398438 124.8663940429688 292.0780639648438 121.7081298828125 336.3834838867188 C 120.4669799804688 353.795654296875 119.8973999023438 371.751220703125 120.0155639648438 389.75146484375 C 120.1099853515625 404.1537475585938 120.6423950195312 418.6167602539062 121.5978393554688 432.7386474609375 C 123.1179809570312 455.208251953125 125.2449951171875 469.7006530761719 125.5365600585938 471.626220703125 L 443.9998474121094 942.220458984375 L 762.4633178710938 471.6260375976562 C 762.7546997070312 469.7024536132812 764.87841796875 455.2358703613281 766.3989868164062 432.7833557128906 C 767.3551025390625 418.6641845703125 767.888427734375 404.2031860351562 767.9838256835938 389.8023681640625 C 768.103271484375 371.8019409179688 767.5349731445312 353.8456420898438 766.295166015625 336.4324951171875 C 763.1397094726562 292.12060546875 755.6688232421875 251.0186157226562 744.0899658203125 214.2681884765625 C 740.744384765625 203.6494750976562 737.006103515625 193.2583618164062 732.97900390625 183.3833618164062 C 728.7408447265625 172.9909057617188 724.0659790039062 162.8839111328125 719.0844116210938 153.3433227539062 C 713.8611450195312 143.3397827148438 708.156005859375 133.6819458007812 702.1275634765625 124.63818359375 C 695.826416015625 115.1853637695312 688.996826171875 106.1407470703125 681.8287353515625 97.7554931640625 C 675.6935424804688 90.57879638671875 669.1539916992188 83.70233154296875 662.3915405273438 77.31707763671875 C 655.4052734375 70.72052001953125 647.9847412109375 64.462646484375 640.3361206054688 58.7176513671875 C 632.4456787109375 52.790771484375 624.0904541015625 47.242919921875 615.50244140625 42.22821044921875 C 606.654296875 37.06134033203125 597.3099975585938 32.31494140625 587.7291259765625 28.12060546875 C 577.8695678710938 23.8043212890625 567.481689453125 19.95123291015625 556.8538818359375 16.668212890625 C 545.9291381835938 13.29351806640625 534.443115234375 10.42620849609375 522.7147216796875 8.145751953125 C 510.6712646484375 5.8040771484375 498.03271484375 4.01531982421875 485.150146484375 2.82904052734375 C 471.9346923828125 1.61236572265625 458.0896911621094 0.995361328125 443.9998474121094 0.995361328125 M 443.9998474121094 -0.004638671875 C 837.7381591796875 -0.004638671875 763.417724609375 471.9999084472656 763.417724609375 471.9999084472656 L 443.9998474121094 944.004638671875 L 124.5821533203125 472.0000610351562 C 124.5821533203125 472.0000610351562 50.26141357421875 -0.004638671875 443.9998474121094 -0.004638671875 Z" stroke="none" fill="#fff"/>
  </g>
</svg>
