<svg xmlns="http://www.w3.org/2000/svg" width="903.009" height="1080.01" viewBox="0 0 903.009 1080.01">
  <g id="Rectangle_3" data-name="Rectangle 3" transform="translate(1.004 0.005)" fill="rgba(0,0,0,0)">
    <path d="M 450.5 1079.225708007812 L -0.3526870310306549 540 L 450.5 0.7741240859031677 L 722.7582397460938 326.398681640625 C 722.8876953125 326.5534057617188 724.1697998046875 328.0868225097656 727.4664306640625 332.0296325683594 C 727.9879150390625 332.6534423828125 728.4733276367188 333.2339782714844 728.8717041015625 333.7105407714844 L 729.9129028320312 334.9557189941406 L 729.9227905273438 334.9675903320312 L 729.9228515625 334.9675598144531 L 729.923095703125 334.9678344726562 L 729.923095703125 334.9678649902344 L 729.9341430664062 334.9810791015625 C 729.9341430664062 334.9810485839844 729.9346923828125 334.9817199707031 729.9346923828125 334.9817199707031 L 729.9346923828125 334.9817199707031 L 729.955078125 335.0061340332031 C 733.8502807617188 339.664794921875 739.6168212890625 346.5616455078125 747.927978515625 356.5018615722656 L 901.3526611328125 539.9998779296875 L 450.5 1079.225708007812 Z" stroke="none"/>
    <path d="M 450.5 1.5537109375 L 0.2991943359375 540 L 450.5 1078.446166992188 L 900.7008056640625 539.9998168945312 L 731.0358276367188 337.0783081054688 C 725.5450439453125 330.51123046875 723.16552734375 327.665283203125 722.539794921875 326.9168090820312 C 722.4732666015625 326.8372802734375 722.4241943359375 326.778564453125 722.39501953125 326.74365234375 L 722.39501953125 326.74365234375 L 722.3800048828125 326.7257690429688 L 450.5 1.5537109375 M 450.5 -0.00537109375 L 723.1585693359375 326.0978393554688 C 723.1403198242188 326.0759887695312 723.1307983398438 326.064697265625 723.1307373046875 326.0646362304688 C 723.1303100585938 326.0640869140625 728.4641723632812 332.4435424804688 748.3115234375 356.18115234375 C 791.22802734375 407.5098266601562 902.0043334960938 539.9998168945312 902.0043334960938 539.9998168945312 L 450.5 1080.005126953125 L -1.00433349609375 540 L 450.5 -0.00537109375 Z M 723.1585693359375 326.0978393554688 C 723.617919921875 326.647216796875 729.63720703125 333.846435546875 730.2826538085938 334.6183471679688 L 723.1585693359375 326.0978393554688 Z M 730.2826538085938 334.6183471679688 L 730.2828369140625 334.6185913085938 C 730.2827758789062 334.6185302734375 730.28271484375 334.6184692382812 730.2826538085938 334.6183471679688 Z M 730.2828369140625 334.6185913085938 C 730.2839965820312 334.6199340820312 730.2852783203125 334.6214599609375 730.286376953125 334.622802734375 L 730.2828369140625 334.6185913085938 Z M 730.286376953125 334.622802734375 L 730.291015625 334.6282958984375 C 730.2894287109375 334.62646484375 730.2879638671875 334.624755859375 730.286376953125 334.622802734375 Z M 730.291015625 334.6282958984375 C 730.2918701171875 334.62939453125 730.2928466796875 334.6305541992188 730.2937622070312 334.631591796875 L 730.291015625 334.6282958984375 Z M 730.2937622070312 334.631591796875 L 730.3386840820312 334.6853637695312 C 730.3386840820312 334.6853637695312 730.3232421875 334.6668701171875 730.2937622070312 334.631591796875 Z" stroke="none" fill="#fff"/>
  </g>
</svg>
