<svg xmlns="http://www.w3.org/2000/svg" width="588.999" height="675.007" viewBox="0 0 588.999 675.007">
  <g id="Rectangle_3" data-name="Rectangle 3" transform="translate(-1145 -268.997)" fill="rgba(0,0,0,0)">
    <path d="M 1439.499877929688 943.2352905273438 L 1150.523803710938 606.27490234375 C 1150.30029296875 605.11474609375 1148.617065429688 596.127197265625 1147.27001953125 581.9895629882812 C 1146.42529296875 573.123779296875 1145.8759765625 563.9973754882812 1145.637573242188 554.864013671875 C 1145.339599609375 543.4485473632812 1145.529052734375 531.9898681640625 1146.200805664062 520.8062744140625 C 1147.910034179688 492.3463134765625 1152.714111328125 465.474853515625 1160.479736328125 440.9382934570312 C 1165.0888671875 426.3743896484375 1170.806274414062 412.4820251464844 1177.47314453125 399.6469421386719 C 1181.056030273438 392.7492980957031 1184.984619140625 386.0208435058594 1189.149658203125 379.6486511230469 C 1193.503784179688 372.9873962402344 1198.237548828125 366.5302124023438 1203.21923828125 360.4565734863281 C 1208.608032226562 353.8865661621094 1214.440185546875 347.578857421875 1220.553588867188 341.7086791992188 C 1226.920288085938 335.59521484375 1233.769653320312 329.7856750488281 1240.911376953125 324.4413146972656 C 1248.332275390625 318.8881225585938 1256.276611328125 313.6818542480469 1264.523681640625 308.9672241210938 C 1273.075561523438 304.0782165527344 1282.192749023438 299.5807495117188 1291.621948242188 295.599853515625 C 1301.3818359375 291.4792175292969 1311.749755859375 287.79638671875 1322.437744140625 284.653564453125 C 1333.482299804688 281.4059448242188 1345.1787109375 278.6437683105469 1357.202392578125 276.4437561035156 C 1369.608032226562 274.1738586425781 1382.710815429688 272.4385681152344 1396.146484375 271.2861328125 C 1409.989624023438 270.0987548828125 1424.575805664062 269.4966735839844 1439.499877929688 269.4966735839844 C 1454.424438476562 269.4966735839844 1469.011108398438 270.0987548828125 1482.854736328125 271.2862243652344 C 1496.290771484375 272.4387512207031 1509.393920898438 274.1741333007812 1521.799926757812 276.4442138671875 C 1533.823852539062 278.6443786621094 1545.520751953125 281.4067687988281 1556.5654296875 284.6545715332031 C 1567.253662109375 287.7975769042969 1577.621826171875 291.4806518554688 1587.3818359375 295.6014709472656 C 1596.81103515625 299.5826721191406 1605.928344726562 304.0803833007812 1614.48046875 308.9696655273438 C 1622.7275390625 313.6845703125 1630.671875 318.89111328125 1638.092895507812 324.444580078125 C 1645.234741210938 329.789306640625 1652.084106445312 335.5992126464844 1658.45068359375 341.7129516601562 C 1664.564086914062 347.58349609375 1670.396118164062 353.8914794921875 1675.784912109375 360.4618530273438 C 1680.767211914062 366.5365905761719 1685.50146484375 372.9949340820312 1689.85595703125 379.657470703125 C 1694.021484375 386.0308532714844 1697.9501953125 392.760498046875 1701.533203125 399.6595764160156 C 1708.2001953125 412.4968566894531 1713.917602539062 426.3916625976562 1718.526489257812 440.9581298828125 C 1726.291015625 465.4980163574219 1731.09375 492.3729248046875 1732.801025390625 520.8363037109375 C 1733.471801757812 532.0202026367188 1733.660278320312 543.47900390625 1733.361572265625 554.8944702148438 C 1733.122436523438 564.02685546875 1732.572631835938 573.1517333984375 1731.727416992188 582.0159301757812 C 1730.38037109375 596.1422729492188 1728.69970703125 605.1146850585938 1728.47607421875 606.2747192382812 L 1439.499877929688 943.2352905273438 Z" stroke="none"/>
    <path d="M 1439.499877929688 269.99658203125 C 1332.381713867188 269.99658203125 1253.016845703125 300.53662109375 1203.610107421875 360.7683715820312 C 1198.640380859375 366.8270263671875 1193.917846679688 373.2683715820312 1189.573974609375 379.9133911132812 C 1185.418334960938 386.2705078125 1181.498413085938 392.983154296875 1177.923461914062 399.8648071289062 C 1171.27001953125 412.6721801757812 1165.563598632812 426.5352783203125 1160.962646484375 441.0691528320312 C 1153.208618164062 465.5632934570312 1148.410522460938 492.390625 1146.70166015625 520.8062744140625 C 1146.030029296875 531.9751586914062 1145.83984375 543.419189453125 1146.136596679688 554.8203735351562 C 1146.3740234375 563.943359375 1146.921997070312 573.0596313476562 1147.765258789062 581.9157104492188 C 1149.069091796875 595.6102905273438 1150.689208984375 604.4682006835938 1150.989868164062 606.0502319335938 L 1439.499877929688 942.4671020507812 L 1728.010009765625 606.0499877929688 C 1728.310302734375 604.470703125 1729.92578125 595.6419067382812 1731.229614257812 581.9683837890625 C 1732.07373046875 573.11572265625 1732.622924804688 564.0022583007812 1732.861694335938 554.8814086914062 C 1733.16015625 543.4801635742188 1732.971801757812 532.0358276367188 1732.3017578125 520.8661499023438 C 1730.597045898438 492.44384765625 1725.801879882812 465.609619140625 1718.0498046875 441.1089477539062 C 1713.449584960938 426.56982421875 1707.7431640625 412.7017211914062 1701.089477539062 399.8899536132812 C 1697.51416015625 393.005615234375 1693.59375 386.2904663085938 1689.437377929688 379.9309692382812 C 1685.092651367188 373.2835083007812 1680.369262695312 366.8397216796875 1675.398315429688 360.77880859375 C 1670.02197265625 354.2238159179688 1664.203491210938 347.9303588867188 1658.104370117188 342.073486328125 C 1651.75244140625 335.9738159179688 1644.918823242188 330.17724609375 1637.793212890625 324.8448486328125 C 1630.388671875 319.3035888671875 1622.461669921875 314.1085205078125 1614.232177734375 309.4036254882812 C 1605.697387695312 304.5242919921875 1596.598266601562 300.0355224609375 1587.187377929688 296.0620727539062 C 1577.444702148438 291.948486328125 1567.094604492188 288.2719116210938 1556.42431640625 285.1341552734375 C 1545.396362304688 281.8912963867188 1533.716674804688 279.133056640625 1521.709838867188 276.9359130859375 C 1509.319458007812 274.668701171875 1496.232299804688 272.9354858398438 1482.811889648438 271.7843017578125 C 1468.982543945312 270.5980224609375 1454.41015625 269.99658203125 1439.499877929688 269.99658203125 M 1439.499877929688 268.99658203125 C 1796.287353515625 268.99658203125 1728.941650390625 606.4998168945312 1728.941650390625 606.4998168945312 L 1439.499877929688 944.0032958984375 L 1150.058227539062 606.5000610351562 C 1150.058227539062 606.5000610351562 1082.71240234375 268.99658203125 1439.499877929688 268.99658203125 Z" stroke="none" fill="#fff"/>
  </g>
</svg>
