<svg xmlns="http://www.w3.org/2000/svg" width="734.624" height="1080.01" viewBox="0 0 734.624 1080.01">
  <g id="Rectangle_3" data-name="Rectangle 3" transform="translate(-1041.688 0.005)" fill="rgba(0,0,0,0)">
    <path d="M 1408.999877929688 1079.10546875 L 1048.473876953125 539.8143920898438 C 1048.245849609375 538.307861328125 1045.743041992188 521.41552734375 1043.977416992188 494.8653259277344 C 1042.895629882812 478.5973205566406 1042.298217773438 461.9403991699219 1042.201782226562 445.3573303222656 C 1042.081176757812 424.6297302246094 1042.747436523438 403.9597473144531 1044.182006835938 383.9213256835938 C 1047.833129882812 332.9229431152344 1056.421630859375 285.6593322753906 1069.708984375 243.4433288574219 C 1073.549072265625 231.2426605224609 1077.838623046875 219.3076019287109 1082.458618164062 207.9696044921875 C 1087.3212890625 196.0359954833984 1092.683959960938 184.4353332519531 1098.397583007812 173.4895935058594 C 1104.38916015625 162.0113372802734 1110.9326171875 150.9357299804688 1117.846313476562 140.5705261230469 C 1125.0732421875 129.7351989746094 1132.905517578125 119.3751983642578 1141.125366210938 109.7781295776367 C 1148.076904296875 101.661865234375 1155.48193359375 93.88573455810547 1163.134643554688 86.66573333740234 C 1171.038330078125 79.20919799804688 1179.428100585938 72.13613128662109 1188.071533203125 65.64333343505859 C 1196.985107421875 58.94733428955078 1206.418823242188 52.68000030517578 1216.11083984375 47.01533508300781 C 1226.092651367188 41.18119812011719 1236.62939453125 35.8221321105957 1247.428100585938 31.08693313598633 C 1258.53662109375 26.21613311767578 1270.235595703125 21.86813354492188 1282.199829101562 18.16399955749512 C 1294.49365234375 14.35786628723145 1307.413818359375 11.12413311004639 1320.60205078125 8.552800178527832 C 1334.139038085938 5.913333415985107 1348.339965820312 3.897200107574463 1362.810302734375 2.560533285140991 C 1377.64892578125 1.189733386039734 1393.189331054688 0.4946666657924652 1408.999877929688 0.4946666657924652 C 1424.810424804688 0.4946666657924652 1440.350830078125 1.189733386039734 1455.189453125 2.560533285140991 C 1469.659790039062 3.897200107574463 1483.860717773438 5.913333415985107 1497.397705078125 8.552800178527832 C 1510.5859375 11.12413311004639 1523.506225585938 14.35786628723145 1535.799926757812 18.16399955749512 C 1547.76416015625 21.86813354492188 1559.463134765625 26.21613311767578 1570.571655273438 31.08706665039062 C 1581.370361328125 35.8221321105957 1591.9072265625 41.18119812011719 1601.889038085938 47.01533508300781 C 1611.580932617188 52.68000030517578 1621.014770507812 58.94733428955078 1629.928466796875 65.64333343505859 C 1638.571655273438 72.13613128662109 1646.961669921875 79.20919799804688 1654.865234375 86.66573333740234 C 1662.517822265625 93.88573455810547 1669.922973632812 101.661865234375 1676.874389648438 109.7781295776367 C 1685.094360351562 119.3751983642578 1692.926513671875 129.7351989746094 1700.153564453125 140.5705261230469 C 1707.067138671875 150.9357299804688 1713.610595703125 162.0113372802734 1719.602294921875 173.4895935058594 C 1725.31591796875 184.4353332519531 1730.678588867188 196.0359954833984 1735.541259765625 207.9696044921875 C 1740.161254882812 219.3076019287109 1744.450805664062 231.2426605224609 1748.290893554688 243.4433288574219 C 1761.578247070312 285.6593322753906 1770.166870117188 332.9229431152344 1773.81787109375 383.9213256835938 C 1775.25244140625 403.9595947265625 1775.918701171875 424.6296081542969 1775.798095703125 445.3572082519531 C 1775.701782226562 461.9403991699219 1775.104370117188 478.5971984863281 1774.022583007812 494.8652038574219 C 1772.256958007812 521.4154052734375 1769.754150390625 538.3077392578125 1769.526245117188 539.8142700195312 L 1408.999877929688 1079.10546875 Z" stroke="none"/>
    <path d="M 1408.999877929688 0.99462890625 C 1393.204956054688 0.99462890625 1377.680297851562 1.68896484375 1362.85693359375 3.058349609375 C 1348.403442382812 4.3935546875 1334.219482421875 6.4072265625 1320.698974609375 9.0433349609375 C 1307.528442382812 11.6112060546875 1294.6259765625 14.84033203125 1282.349365234375 18.64111328125 C 1270.403076171875 22.3397216796875 1258.722290039062 26.6807861328125 1247.630981445312 31.5439453125 C 1236.849731445312 36.2713623046875 1226.330444335938 41.6214599609375 1216.365234375 47.4456787109375 C 1206.68994140625 53.1004638671875 1197.2724609375 59.35699462890625 1188.374145507812 66.04132080078125 C 1179.745727539062 72.5228271484375 1171.370239257812 79.58349609375 1163.480224609375 87.02716064453125 C 1155.840209960938 94.23486328125 1148.447631835938 101.9978637695312 1141.507568359375 110.1005249023438 C 1133.301147460938 119.681640625 1125.481567382812 130.024658203125 1118.265869140625 140.8423461914062 C 1111.362548828125 151.1918334960938 1104.82861328125 162.2508544921875 1098.845458984375 173.7123413085938 C 1093.139038085938 184.6431884765625 1087.783203125 196.228515625 1082.926635742188 208.146484375 C 1078.311645507812 219.4708251953125 1074.026611328125 231.3920288085938 1070.190551757812 243.5784912109375 C 1056.914306640625 285.7543334960938 1048.332275390625 332.976318359375 1044.6826171875 383.9326782226562 C 1043.248291015625 403.9578247070312 1042.581787109375 424.614501953125 1042.701538085938 445.3291625976562 C 1042.79736328125 461.9030151367188 1043.39404296875 478.5506591796875 1044.474975585938 494.809814453125 C 1046.203857421875 520.8201293945312 1048.640991210938 537.5570068359375 1048.951782226562 539.629638671875 L 1408.999877929688 1078.205810546875 L 1769.048217773438 539.6294555664062 C 1769.359008789062 537.5568237304688 1771.796142578125 520.8200073242188 1773.525146484375 494.8096923828125 C 1774.60595703125 478.5504760742188 1775.202392578125 461.90283203125 1775.298461914062 445.3289794921875 C 1775.418090820312 424.6143188476562 1774.751708984375 403.9576416015625 1773.3173828125 383.9326782226562 C 1769.667724609375 332.976318359375 1761.085571289062 285.7543334960938 1747.809204101562 243.5784912109375 C 1743.973266601562 231.391845703125 1739.688232421875 219.4708251953125 1735.0732421875 208.1463623046875 C 1730.216552734375 196.228515625 1724.860717773438 184.6431884765625 1719.154418945312 173.7123413085938 C 1713.171264648438 162.2508544921875 1706.63720703125 151.1918334960938 1699.73388671875 140.8421630859375 C 1692.518310546875 130.024658203125 1684.69873046875 119.681640625 1676.492309570312 110.1005249023438 C 1669.55224609375 101.9978637695312 1662.159545898438 94.23486328125 1654.51953125 87.02716064453125 C 1646.629638671875 79.58349609375 1638.254028320312 72.5228271484375 1629.625732421875 66.04132080078125 C 1620.727416992188 59.35699462890625 1611.309936523438 53.1004638671875 1601.634643554688 47.4456787109375 C 1591.66943359375 41.6214599609375 1581.150146484375 36.2713623046875 1570.368896484375 31.5439453125 C 1559.277587890625 26.6807861328125 1547.596557617188 22.3397216796875 1535.650390625 18.64111328125 C 1523.373901367188 14.84033203125 1510.471313476562 11.6112060546875 1497.300903320312 9.0433349609375 C 1483.780395507812 6.4072265625 1469.596435546875 4.3935546875 1455.142944335938 3.058349609375 C 1440.319580078125 1.68896484375 1424.794921875 0.99462890625 1408.999877929688 0.99462890625 M 1408.999877929688 -0.00537109375 C 1854 -0.00537109375 1770.003540039062 539.9998168945312 1770.003540039062 539.9998168945312 L 1408.999877929688 1080.005126953125 L 1047.996459960938 540 C 1047.996459960938 540 963.999755859375 -0.00537109375 1408.999877929688 -0.00537109375 Z" stroke="none" fill="#fff"/>
  </g>
</svg>
