<svg xmlns="http://www.w3.org/2000/svg" width="643.006" height="891.06" viewBox="0 0 643.006 891.06">
  <g id="Rectangle_3" data-name="Rectangle 3" transform="translate(-638.997 354.056)" fill="rgba(0,0,0,0)">
    <path d="M 960.6856079101562 536.4070434570312 L 639.6134033203125 91.47438049316406 L 960.6856079101562 -353.458251953125 C 961.9727783203125 -352.9939575195312 966.7467651367188 -351.2359619140625 974.1402587890625 -348.1007385253906 C 982.155517578125 -344.7017211914062 994.9757080078125 -338.9429626464844 1010.533935546875 -330.8103942871094 C 1028.019775390625 -321.6702880859375 1045.329223632812 -311.4560546875 1061.981811523438 -300.4515075683594 C 1082.795776367188 -286.6970520019531 1102.6357421875 -271.6620788574219 1120.951049804688 -255.7642822265625 C 1167.563842773438 -215.303955078125 1204.70263671875 -169.0785064697266 1231.335693359375 -118.3720626831055 C 1239.03369140625 -103.716064453125 1245.943359375 -88.484619140625 1251.872680664062 -73.1009521484375 C 1258.1142578125 -56.90761947631836 1263.441528320312 -40.09928512573242 1267.70654296875 -23.14306449890137 C 1272.1796875 -5.359175205230713 1275.608276367188 13.07982540130615 1277.89697265625 31.66182518005371 C 1280.289794921875 51.08949279785156 1281.503051757812 71.21327209472656 1281.503051757812 91.47438049316406 C 1281.503051757812 111.7377166748047 1280.28955078125 131.8637084960938 1277.896118164062 151.2934875488281 C 1275.607055664062 169.8772735595703 1272.177734375 188.3181610107422 1267.70361328125 206.1037139892578 C 1263.437622070312 223.0614929199219 1258.109252929688 239.8711547851562 1251.866577148438 256.0658264160156 C 1245.935913085938 271.4507141113281 1239.02490234375 286.6832580566406 1231.325561523438 301.3402709960938 C 1204.68798828125 352.0491638183594 1167.543334960938 398.2759399414062 1120.923828125 438.7367248535156 C 1102.606811523438 454.6338195800781 1082.76513671875 469.6679382324219 1061.949951171875 483.42138671875 C 1045.297485351562 494.4243774414062 1027.98828125 504.6369323730469 1010.503295898438 513.7752685546875 C 994.9482421875 521.9049072265625 982.1319580078125 527.6610717773438 974.1195068359375 531.0582885742188 C 966.7350463867188 534.189208984375 961.97119140625 535.943359375 960.6856079101562 536.4070434570312 Z" stroke="none"/>
    <path d="M 960.8699951171875 535.80810546875 C 962.5360107421875 535.2001342773438 967.1104736328125 533.4868774414062 973.9241943359375 530.5979614257812 C 981.92822265625 527.2042236328125 994.7312622070312 521.4539794921875 1010.271545410156 513.3320922851562 C 1027.741577148438 504.2015686035156 1045.035888671875 493.9978332519531 1061.674194335938 483.0042419433594 C 1082.471435546875 469.2627868652344 1102.295532226562 454.2419738769531 1120.596069335938 438.3590393066406 C 1167.168334960938 397.9393005371094 1204.274169921875 351.7613220214844 1230.8828125 301.1077270507812 C 1238.5732421875 286.4677124023438 1245.476318359375 271.2530517578125 1251.39990234375 255.885986328125 C 1257.635375976562 239.7101135253906 1262.957641601562 222.9198455810547 1267.218627929688 205.9817199707031 C 1271.687866210938 188.2161102294922 1275.11328125 169.7957153320312 1277.39990234375 151.2323760986328 C 1279.790771484375 131.8227844238281 1281.003051757812 111.7173156738281 1281.003051757812 91.47438049316406 C 1281.003051757812 71.23584747314453 1279.791259765625 51.13478088378906 1277.4013671875 31.72931289672852 C 1275.115844726562 13.16971397399902 1271.691772460938 -5.247086048126221 1267.224609375 -23.00922012329102 C 1262.965454101562 -39.94441986083984 1257.645385742188 -56.73175430297852 1251.412353515625 -72.90495300292969 C 1245.490966796875 -88.26962280273438 1238.590698242188 -103.4821548461914 1230.9033203125 -118.1201553344727 C 1204.3037109375 -168.7689514160156 1167.209228515625 -214.9441528320312 1120.650390625 -255.3630828857422 C 1102.353271484375 -271.2473449707031 1082.5322265625 -286.2697448730469 1061.737915039062 -300.0133666992188 C 1045.099487304688 -311.010009765625 1027.804321289062 -321.2172241210938 1010.332763671875 -330.3513488769531 C 994.7860717773438 -338.4789428710938 981.9752807617188 -344.2344055175781 973.9658203125 -347.6315002441406 C 967.134521484375 -350.5289001464844 962.5407104492188 -352.2494812011719 960.8699951171875 -352.8593139648438 L 640.2301025390625 91.47438049316406 L 960.8699951171875 535.80810546875 M 960.4999389648438 537.0042724609375 L 638.9968872070312 91.47438049316406 L 960.4999389648438 -354.0554809570312 C 960.4999389648438 -354.0554809570312 1282.003051757812 -241.5254821777344 1282.003051757812 91.47438049316406 C 1282.003051757812 424.474365234375 960.4999389648438 537.0042724609375 960.4999389648438 537.0042724609375 Z" stroke="none" fill="#fff"/>
  </g>
</svg>
